<?xml version="1.0" encoding="UTF-8"?>
<svg version="1.1" viewBox="0 0 1928 2048" width="485" height="515" xmlns="http://www.w3.org/2000/svg">
<path transform="translate(949,87)" d="m0 0h32l29 3 32 6 24 6 16 5 26 9 25 11 15 7 22 12 23 14 18 13 9 7 10 8 10 9 15 14 26 26 7 8 9 10 12 16 14 21 14 22 15 29 9 20 10 25 8 28 6 24 5 27 3 29 1 16v51l-4 44-5 31-10 42-8 24-14 39-13 31-13 26-12 22-13 22-7 11-12 18-11 15-12 16-8 11-11 16-11 17-21 35-8 14-11 23-7 15-13 36-13 52-5 27-3 28-2 32-1 89-3 5-5 2h-92l-94 1-4-2-2-5v-1203l1-8z" fill="#FDC515"/>
<path transform="translate(768,88)" d="m0 0h8l8 4 5 6 2 4v10l-6 8-7 7-1 4-1 53-3 7-14 17-12 14-7 9-9 10-10 14-1 3-1 107-3 5-10 10-11 9-15 13-13 11-11 9-9 8-11 9-17 16-11 9-7 6-1 46v135l2 18 5-1 11-9 9-10h2l1-3 21-21 5-4 7-8h2v-2l8-7 11-12 7-7 1-3v-50l-2-5-10-9-3-7v-9l5-8 6-4 4-1h10l6 3 4 5 2 6v8l-3 7-5 6-6 4-2 55-4 6-9 10-20 20-8 7-30 30-7 8-10 11-1 5 12 14 7 8 135 135 8 7 43 43 5 7 1 3v405l-4 4-7 1-5-1-1-2-1-146-1-31-7-8-13-12-11-9-15-14-10-9-14-13-8-7-13-12-8-7-10-9-12-11-8-7-15-14-8-7-15-14-6-7-1-7v-83l-9-11-11-9-14-13-8-7-16-15-11-9-15-13-12-11-10-9-13-12-8-7-14-14-1-2-2-98-10-9-4-7-1-8 4-9 5-4 5-2h12l8 5 4 8v10l-8 11-5 3-1 6-1 23v42l1 24 3 7 7 7 8 7 13 12 8 7 11 10 2 1v2l4 2 10 10 10 8 9 9 8 7 9 8 8 7 10 10 14 9 1-28-2-4-9-7-4-7v-8l6-10 7-5h12l6 4 4 5 2 4v11l-7 9-5 3h-2l-1 49v64l1 21 4 7 9 8 9 7 12 11 2 1v2l4 2 9 9 8 7 15 14 8 7 12 12 8 7 15 14 10 9 11 10 8 7 11 10 11 8 1-39v-175l-4-6-12-13-12-12-6-5-7-8-10-9-7-8-21-21-8-7-15-15-7-8-16-15-8-8-8-7-7-8-8-8-8-7-16-16v-2l-3-1-7-8-24-24-5-8-1-4-1-49-4-6-8-9-12-9-14-12-10-9-14-12-11-10-10-8-14-12-9-8-5-7-2-98-10-9-4-6-1-7 3-8 5-6 6-3h11l6 3 6 7 2 5-1 9-4 6-4 5-5 3-1 4v93l5 7 11 9 15 14 11 9 10 10 11 9 9 9 11 9 14 13 6 3 1-10v-257l-8-10-14-14-9-11-4-8-1-15-5-2-6-7-3-7v-9l5-8 5-4 3-1h8l8 3 5 5 3 6v8l-4 8-8 7-3 2-1 4v7l3 7 7 7 9 11 16 16 5 1 14-14 8-7 7-7 1-2h2l2-5 1-2v-82l-1-32-4-4-6-5-4-7v-10l4-8 7-6 3-1h10l6 3 5 6 3 7v8l-4 7-7 6-4 4-1 111-2 8-6 8h-2l-2 4-8 8h-2v2h-2v2h-2l-2 4-6 7v40l1 64 1 10 18-12 10-10 10-8 11-10 11-9 10-9 11-9 15-13 13-12 1-3 1-108 6-9 9-11 13-15 11-13 8-10 7-12 1-4v-26l-1-29-8-6-6-10v-7l4-8 8-7zm1 6-6 4-3 7 1 6 2 4 4 2h10l6-5 1-6-2-7-6-5zm-142 64-6 5-2 4 1 7 4 5 3 1h7l5-4 2-7-2-7-5-4zm-80 98-7 3-4 7 1 7 4 5 5 2h6l6-4 2-3v-8l-3-6-6-3zm-79 136-6 5-2 4 1 9 5 5 2 1h10l6-5 1-2v-9l-3-5-4-3zm224 103-5 3-4 6 1 9 5 5 2 1h9l6-4 2-3v-8l-4-6-5-3zm-207 117-6 4-3 5v8l4 6 4 2h9l5-4 2-4-1-9-3-5-5-3zm145 187-7 2-4 5-1 2v7l4 6 6 3h7l6-5 2-5-2-9-6-5z" fill="#7AB2AB"/>
<path transform="translate(951,1335)" d="m0 0h136l41 1 1 1v41l-1 1h-337l-2-4v-38l1-1z" fill="#453505"/>
<path transform="translate(819,1413)" d="m0 0h276l5 2v38l-2 2h-276l-3-1-1-5v-34z" fill="#443504"/>
<path transform="translate(669,1677)" d="m0 0 9 2 5 4 5 10 24 56 6 15 5 10 1 10-10 1-5-2-7-8-6-14-1-1h-52l-2 6-8 15-5 4h-27l-7-3-6-5-18-22-7-9-5-4-7 4-8 9-3 6v17l-5 6-7 1-5-2-3-7 1-38v-56l4-4h8l5 3 1 1 2 45 7-3 10-9 7-8 10-10 7-8 10-9 6-2h9l5 2-3 5-11 12-17 17-6 8-1 2v6l8 10 13 16 10 12 5 5 5 2 4-5 11-24 10-23 15-33 4-8 6-4zm0 25-6 9-6 15-4 14v3l4 1h29l2-1-1-7-8-16-6-15-2-3z" fill="#FDC515"/>
<path transform="translate(851,1493)" d="m0 0h220l2 6-1 33-2 2h-222l-1-2-1-22v-9l2-7z" fill="#443505"/>
<path transform="translate(779,270)" d="m0 0h13l6 3 5 7 1 3v10l-4 6-9 11-1 39v90l-2 10-15 16-28 28-2 3v94l1 7 12-9 6-5 6-7 8-7 21-21h2l2-4 3-1v-2l8-7 28-30 3-4-1-87-3-5-8-7-4-7v-9l5-8 6-5 5-2h7l7 3 7 8 1 3v10l-4 6-4 5-6 4-1 4-1 82-2 9-8 10-10 9-33 33-7 8-16 16h-2v2l-8 7-10 10-9 11-1 2v62l3 6 9 10 12 12 8 7 80 80 7 6 5 6 6 5 7 8 11 11 3 2v2l4 2 7 9 1 4-5-2-11-9-13-13-4-3v-2l-4-2v-2l-4-2-73-73-2-1v-2l-4-2-6-7-2-1v-2l-4-2-32-32-6-9-1-3v-180l6-7 8-7 33-33 1-43v-97l-5-2-8-7-4-8 1-9 6-8zm4 4-6 4-3 5v8l3 5 4 3h8l6-4 2-6-1-8-3-5-4-2zm61 103-7 3-3 4v8l4 6 3 1h8l7-4 2-3-1-9-6-5z" fill="#7CB4AC"/>
<path transform="translate(1162,1677)" d="m0 0h12l4 2v11l-1 23v22l-1 43-4 6-2 1h-7l-8-7-8-9-7-10-10-13-9-10-11-13-3-2-4 1-2 4-1 7 1 9v11l-2 24-4 6-2 1h-6l-5-6-1-3v-90l4-6 2-1h7l6 4 5 5 18 22 12 16 11 12 4 4h3l3-7v-24l1-27 3-5z" fill="#FDC515"/>
<path transform="translate(994,1677)" d="m0 0h20l13 4 11 6 10 9 7 11 3 11 1 7v12l-4 16-5 9-8 10-9 6-12 5-8 2h-24l-10-3-13-7-8-7-7-11-4-11-1-5v-20l5-15 7-11 9-9 13-6zm1 17-12 4-8 6-6 8-3 9-1 14 4 16 4 6 8 7 10 5 5 1h11l10-2 9-5 9-10 5-11 1-5v-11l-2-10-6-9-9-8-8-4-4-1z" fill="#FDC515"/>
<path transform="translate(179,1677)" d="m0 0h6l5 3 3 7v23l3 9 5 2 45 1 2-37 3-5 3-2h8l5 3 1 8-1 6v9l1 3v72l-4 5-2 1h-7l-6-5-1-3-1-31-2-6h-46l-5 1-1 30-1 10-4 4h-10l-5-3-2-4v-24l1-61v-8l3-6z" fill="#FDC515"/>
<path transform="translate(836,1677)" d="m0 0h8l4 4 1 26 1 14h53l1-38 3-4 3-1h11l2 3v90l-2 10-3 3h-9l-4-5-1-33-1-6h-53l-1 1v29l-2 11-3 3h-11l-4-5v-47l-1-14 1-34 4-6z" fill="#FDC515"/>
<path transform="translate(335,1677)" d="m0 0h8l6 4 5 6 5 11 10 25 11 24 9 21 4 8 1 8-2 1h-12l-7-8-8-16-4-2-46 1-3 1-7 16-6 7-3 1h-8l-5-3 4-10 10-24 9-20 8-16 9-21 4-8 6-5zm3 25-5 6-7 17-4 11v7l7 2 20 1 8-3-1-8-8-18-7-13z" fill="#FDC515"/>
<path transform="translate(1555,1681)" d="m0 0 53 1 13 2 8 5 4 5 2 6v13l-6 8-6 5 1 5 9 7 5 6 2 6-1 10-4 8-8 7-10 3-17 2h-42l4-4 1-8v-74l-2-7-6-4zm35 4-3 1-1 2v36l2 3h10l7-4 6-7 2-5v-10l-5-10-5-4-6-2zm0 47-4 4-1 2v30l2 9 3 1 14-1 5-3 5-5 3-9v-12l-4-8-7-6-6-2z" fill="#75B0A8"/>
<path transform="translate(449,1677)" d="m0 0h22l13 4 11 7 2 3v8l-4 4h-6l-15-7-8-2h-8l-13 4-7 4-5 5-5 8-3 9v14l6 16 5 6 11 7 9 2h8l13-3 10-6 5-1 6 4 2 4-1 5-6 5-11 5-12 3-16 1-14-3-14-8-10-9-6-10-5-14-1-6 1-17 4-13 9-13 8-7 12-6z" fill="#FDC515"/>
<path transform="translate(729,1678)" d="m0 0h80l5 1 1 3-1 10-7 2-23 2-5 1v52l-1 30-4 5-9 2-4-2-2-5-1-6v-77l-26-2-7-2-2-5v-6l1-2z" fill="#FDC515"/>
<path transform="translate(1515,1681)" d="m0 0 24 1-5 4-3 4-1 3-1 48-1 14-3 10-6 8-6 5-8 3-6 1h-20l-10-3-8-6-5-6-3-8-1-10v-59l-5-5v-2l4-1h33v2l-6 2-1 3-1 30v39l3 12 4 5 6 2h15l8-3 6-6 3-9 1-8v-58l-3-6-4-4z" fill="#78B1AA"/>
<path transform="translate(1274,1680)" d="m0 0h20l19 5 6-1 2-2h3v16l-1 10-5-5-6-8-7-6-10-4h-13l-7 3-8 6-9 14-2 7-1 8v17l3 16 6 11 4 5 8 4 4 1h16l8-2 10-6 6-6h2l-1 6-8 7-10 5-8 2-15 1-16-3-16-8-6-5-7-10-4-11-1-6v-16l5-16 6-10 10-10 14-7z" fill="#76B1A9"/>
<path transform="translate(1344,1681)" d="m0 0 37 1v2l-5 2-1 12v79h23l10-1 5-4h2l2-4 7-11 3-5 2 1-3 23-2 4-2 1h-60l-17-1 4-4 1-3v-84l-5-5z" fill="#76B0A8"/>
<path transform="translate(1147,1895)" d="m0 0h16l11 3 7 1 2-2h3v22l-3-3-6-9-9-6-7-2h-10l-8 4-7 8-4 11-1 8v14l3 14 4 8 5 4 9 3h10l5-1 1-2v-19l-2-5-2-4h27l-2 4-2 2-2 19-2 4-19 4h-17l-12-3-11-7-6-7-5-10-1-4v-17l3-9 6-9 9-8 8-4z" fill="#524722"/>
<path transform="translate(1047,1897)" d="m0 0h13l8 1v74l-5 2h-8l-5-4 1-5 1-2v-29l-4-8-3-2-6 1-4 7-1 5v20l4 10 3 2h8l-5 5-3 1h-8l-6-3-4-5-4-11v-14l4-12 6-7 6-3h7l11 5-1-23z" fill="#554D29"/>
<path transform="translate(836,1920)" d="m0 0 7 1 6 7 1 21v23l-1 1h-13l-1-1-1-42-6-1-7 5-1 38-1 1h-14v-45l-2-3v-3l16 1 3 3h6l2-4z" fill="#544D29"/>
<path transform="translate(1310,1922)" d="m0 0h18l2 1 1 10 6 17v2l4-4 5-11-1-8-2-6 1-1h17l1 2-1 7 7 17 4 2 5-12 1-4v-11l1-1h7l-11 29-8 21-3 2-4-7-6-17-4-9-3-1-2 6-6 16-4 10h-4l-5-10-12-32-4-6z" fill="#534A25"/>
<path transform="translate(985,1921)" d="m0 0h9l7 6 2 8 1 38h-15v-35l-1-9h-9l-5 5-1 2v36l-1 1h-14l-1-46-1-5h13l5 3v2l6-3z" fill="#534621"/>
<path transform="translate(566,1897)" d="m0 0h20l6 1-2 2h-3l-1 71h23l9-4 8-15 2-1-3 21-1 1-11 1h-23l-23-1 1-4v-67l-4-4z" fill="#554E2B"/>
<path transform="translate(710,1920)" d="m0 0h11l7 4 4 7 1 6 1 31 3 4-2 2-9 1-9-6 1-5v-16l-6 3-4 5-1 9 1 3 3 3-7 4h-6l-5-3-1-2v-9l3-6 16-9 7-5v-8l-3-8-5-1-4 2 1 13-4 4h-6l-4-4 1-9 4-5 8-4z" fill="#534924"/>
<path transform="translate(914,1920)" d="m0 0h11l8 4 3 5 1 4 1 35 1 5-1 1h-10l-5-4-1-4v-15l-1-3-8 7-2 4v9l4 2-1 3-3 1h-10l-4-3-1-9 5-7 20-12 1-2v-10l-2-6-2-1h-8l-1 6 2 5-1 6-4 2-5-1-4-4 1-6 7-8 5-3z" fill="#524621"/>
<path transform="translate(1273,1920)" d="m0 0h8l7 3 7 6 5 9 1 3v14l-4 10-7 7-8 3-2-1 5-6 1-7v-29l-4-7-7-1-5 5-1 5v31l3 7 2 1v2l-9-3-8-7-3-8v-16l4-10 6-7 5-3z" fill="#534B27"/>
<path transform="translate(659,1920)" d="m0 0h7l7 4 6 9 2 5v6l-2 1h-25v7l3 10 4 6 6 2 7-2 5-4v3l-7 6-5 2h-13l-8-4-4-5-3-7-1-6v-12l5-10 7-7 5-3zm1 3-5 4-2 6v7l5 3h8l3-2v-10l-3-6-3-2z" fill="#534823"/>
<path transform="translate(781,1921)" d="m0 0h10l2 3v8l-2 3-16-2-4 3-1 4-1 28v5h-15l-1-45-2-6h16l2 1 1 6 5-2z" fill="#554D2A"/>
<path transform="translate(1205,1922)" d="m0 0h16l2 1 1 8h4l-4 8-1 10v19l1 4-1 1h-14l-1-1v-23l-1-23z" fill="#534B27"/>
<path transform="translate(836,1920)" d="m0 0 7 1 6 7 1 21v23l-1 1h-13l-1-1-1-42-5-3v-2h2l-1-3z" fill="#534C28"/>
<path transform="translate(985,1921)" d="m0 0h9l7 6 2 8 1 38h-15v-35l-1-9h-11l-3-2 6-3z" fill="#534B27"/>
<path transform="translate(1033,1921)" d="m0 0h8l3 2-6 3-3 6-1 5v20l4 10 3 2h8l-5 5-3 1h-8l-6-3-4-5-4-11v-14l4-12 6-7z" fill="#544C29"/>
<path transform="translate(1281,1921)" d="m0 0 6 1 8 7 5 9 1 3v14l-4 10-7 7-8 3-2-1 5-6 1-7v-29l-4-7z" fill="#524822"/>
<path transform="translate(1164,1942)" d="m0 0h27l-2 4-2 2-2 19-2 4-19 4h-17l2-2h13l5-1 1-2v-19l-2-5z" fill="#585330"/>
<path transform="translate(583,1913)" d="m0 0h1v57h2v2h-16v-2h5l-1-5v-22l1-9 2-3 2-7 2-2z" fill="#443403"/>
<path transform="translate(704,1950)" d="m0 0h3v15l1 3 3 3-7 4h-6l-5-3-1-2v-9l3-6z" fill="#534924"/>
<path transform="translate(663,1920)" d="m0 0 6 1 6 5 6 12v6l-2 1h-25l-1 2v-7l5 2h8l2-1v-10l-3-6-5-2z" fill="#56512F"/>
<path transform="translate(905,1952)" d="m0 0h6v16l4 2-1 3-3 1h-10l-4-3-1-9 5-7z" fill="#54491E"/>
<path transform="translate(1147,1895)" d="m0 0h16l11 3 7 1 2-2h3v22l-3-3-6-9-9-6-7-2h-12l-1-1-7-1v-1z" fill="#55502E"/>
<path transform="translate(710,1920)" d="m0 0h7l-1 5-6-1-4 2 1 13-4 4h-6l-4-4 1-9 4-5 8-4z" fill="#524A24"/>
<path transform="translate(914,1920)" d="m0 0 7 1v2l-3 1h-8l-1 6 2 5-1 6-4 2-5-1-4-4 1-6 7-8 5-3z" fill="#696A4A"/>
<path transform="translate(781,1921)" d="m0 0h10l2 3v8l-2 3-8-1-13-2-1-6 1 3 5-2z" fill="#5C5632"/>
<path transform="translate(1237,1921)" d="m0 0h7l3 3 1 7-3 4h-6l-9-3-2-2 7-8z" fill="#56522F"/>
<path transform="translate(627,1951)" d="m0 0 1 3-3 18-1 1-11 1h-23l-6-1 2-2h23l9-4 8-15z" fill="#4F441C"/>
<path transform="translate(995,1375)" d="m0 0 4 1 4-1 3 1 28 1v1l-14 1h-75v-1l12-1h13l10-1h11z" fill="#4E3F18"/>
<path transform="translate(958,1935)" d="m0 0h1l1 26 3 1v3h2l1 2 6-2 1 7-1 1h-14z" fill="#5A6042"/>
<path transform="translate(1147,1895)" d="m0 0h16l11 3 4 2-1 6-12-6-4-1h-12l-1-1-7-1v-1z" fill="#80B5AE"/>
<path transform="translate(968,1948)" d="m0 0 2 2 1 16-6 2v-3h-2l-1-3-2-1 2-5 5-5z" fill="#443403"/>
<path transform="translate(1379,1922)" d="m0 0h7l-11 29-2 3v-2l-2-1 5-10 2-7v-11z" fill="#7DB1A9"/>
<path transform="translate(907,1931)" d="m0 0 2 2v9l-6 1-3-3 1-7 2-1 1 3 1-3z" fill="#574B1F"/>
<path transform="translate(612,1970)" d="m0 0 2 1 10 1v1l-11 1h-23l-6-1 2-2h23z" fill="#94C2BC"/>
<path transform="translate(901,1955)" d="m0 0 2 1-1 5-1 12-4-2-1-9z" fill="#534D29"/>
<path transform="translate(921,1943)" d="m0 0 1 4-9 8-3 4 1-7-4-1 13-7z" fill="#7B8B76"/>
<path transform="translate(718,1941)" d="m0 0 1 2-2 5-6 4-4 4-1-7 11-7z" fill="#92AB9D"/>
<path transform="translate(896,1376)" d="m0 0h9v2l7-1 3 2h-36v-1l15-1z" fill="#50411A"/>
<path transform="translate(905,1952)" d="m0 0h6v2h-2v13l-1-3h-2l-1-7-2-1z" fill="#463809"/>
<path transform="translate(710,1920)" d="m0 0h7l-1 5-6-1-5 2v-2l-5 1 3-3z" fill="#76AB9F"/>
<path transform="translate(706,1933)" d="m0 0h1v6l-4 4h-6l-2-2h4l1-5 4 1z" fill="#70775B"/>
<path transform="translate(627,1951)" d="m0 0 1 3-2 12-5-2 2-6 3-6z" fill="#6C755B"/>
<path transform="translate(914,1920)" d="m0 0 7 1v2l-3 1h-8l-1 3-4-2 3-3z" fill="#7B9C82"/>
<path transform="translate(1183,1897)" d="m0 0h3v22l-3-3 1-8v-5l-2-2z" fill="#77AFA6"/>
<path transform="translate(653,1940)" d="m0 0 5 2h10l2 3h-16l-1 2z" fill="#7BABA0"/>
<path transform="translate(1346,1937)" d="m0 0 4 2-3 1-2 6-4 10-2-1 1-5z" fill="#95BEB3"/>
<path transform="translate(679,1964)" d="m0 0v3l-7 6-4 1-2-1 1-3 7-2z" fill="#87B19C"/>
<path transform="translate(1035,1920)" d="m0 0h7l11 5-1 6-4-5-7-4-6-1z" fill="#B0CEC0"/>
<path transform="translate(1381,1922)" d="m0 0h5l-4 10h-2v-9z" fill="#5A5F41"/>
<path transform="translate(1205,1922)" d="m0 0h4v27h-1l-1-23z" fill="#7CB4AC"/>
<path transform="translate(769,1926)" d="m0 0 1 3 5-2 2-1 1 4 1 2-5 1-4-1z" fill="#91BEB2"/>
<path transform="translate(897,1960)" d="m0 0 1 3v2l2 1 1 7-4-2-1-9z" fill="#A39B51"/>
<path transform="translate(921,1943)" d="m0 0 1 4-6 4-2-1 1-3z" fill="#94B59A"/>
<path transform="translate(640,171)" d="m0 0 1 4-5 6-7 1-2-2 7-1 5-5z" fill="#FEFEFE"/>
<path transform="translate(680,1963)" d="m0 0" fill="#FEFEFE"/>
</svg>
